<svg width="84" height="84" viewBox="0 0 84 84" fill="none" xmlns="http://www.w3.org/2000/svg">
<path fill-rule="evenodd" clip-rule="evenodd" d="M16.5555 33.7493C16.5555 42.0105 29.5647 68.4088 41.9081 68.4088H41.9084C54.2522 68.4088 67.3043 43.178 67.3043 32.7971C67.3043 26.2336 61.1992 15.6122 41.8353 15.6122C22.4716 15.6122 16.5555 27.3453 16.5555 33.7493ZM32.9746 35.5979C28.3507 30.6065 25.4809 25.5468 25.4809 25.5468C25.4809 25.5468 30.2092 23.1925 33.2981 22.5638C33.5613 22.5104 33.8297 22.4529 34.1047 22.3945C37.0568 21.7658 40.7292 20.9842 46.0248 22.8854C57.0429 26.8413 61.7407 34.2405 61.7407 34.2405C61.7407 34.2405 54.6502 28.5308 46.8425 27.3843C42.3449 26.7238 33.979 29.4029 33.979 29.4029C33.979 29.4029 36.8868 32.4808 39.2536 36.9872C39.6267 37.6976 39.9902 38.348 40.3384 38.9707C42.1982 42.2969 43.6111 44.8238 43.6111 51.4165C43.6111 56.2265 39.9755 63.3744 39.9755 63.3744C39.9755 63.3744 42.0174 54.0612 40.3705 46.6974C39.1804 41.3743 38.2623 40.5553 36.0983 38.6246C35.2688 37.8846 34.2559 36.9813 32.9746 35.5979Z" fill="black"/>
</svg>
