<svg width="83" height="83" viewBox="0 0 83 83" fill="none" xmlns="http://www.w3.org/2000/svg">
<path d="M68.6332 40.9735C68.3168 37.0838 67.2798 33.2868 65.5752 29.7763L75.2187 26.2747C74.4583 24.6997 73.5663 23.1917 72.5523 21.7668L68.0314 23.4138C64.0823 17.8769 58.4267 13.7874 51.9312 11.772C45.4357 9.75662 38.4586 9.92642 32.0688 12.2554C25.679 14.5844 20.229 18.9441 16.5539 24.6666C12.8787 30.389 11.1811 37.1586 11.7211 43.9381L16.2524 42.2729C16.3962 44.0099 16.6833 45.7319 17.1109 47.4215L7.48035 50.9361C8.43344 54.7185 10.0807 58.291 12.3384 61.4719L17.4378 59.6147L17.4429 59.6251C20.5379 63.9813 24.712 67.4582 29.5558 69.7148C37.0378 73.1925 45.5938 73.5607 53.3469 70.7386C61.1001 67.9164 67.4174 62.1343 70.9131 54.6607C73.1819 49.8117 74.1474 44.4549 73.7143 39.1189L68.6332 40.9735ZM61.0594 50.0412C58.7927 54.8968 54.6923 58.6548 49.6579 60.4905C44.6235 62.3261 39.0665 62.0896 34.2063 59.8326C32.0054 58.8068 30.0095 57.3891 28.3159 55.6489L23.1673 57.5268C20.4021 54.6764 18.532 51.0787 17.7879 47.1777L27.4496 43.658C27.1062 41.8938 26.999 40.0918 27.1306 38.2993L22.5863 39.9515C22.8271 36.6913 23.857 33.5385 25.5873 30.7648C27.3176 27.9911 29.6965 25.6799 32.5188 24.0301C35.3412 22.3804 38.5224 21.4418 41.7882 21.2951C45.054 21.1484 48.3066 21.7981 51.2654 23.1881H51.281C53.4761 24.2184 55.4665 25.6376 57.1558 27.377L61.6793 25.7326C62.9273 27.017 63.9993 28.4613 64.8671 30.0278L55.2443 33.5553C57.1841 37.0196 58.0652 40.9767 57.7783 44.9367L62.8828 43.0796C62.7032 45.4917 62.0853 47.8508 61.0594 50.0412Z" fill="black"/>
</svg>
