<svg width="14" height="16" viewBox="0 0 14 16" fill="none" xmlns="http://www.w3.org/2000/svg">
<path d="M9.19241 9.78462C9.09456 9.75262 8.4761 9.47386 8.86256 8.29909H8.85702C9.86441 7.26155 10.6343 5.59201 10.6343 3.94832C10.6343 1.42093 8.95364 0.0960083 7.00041 0.0960083C5.04595 0.0960083 3.37456 1.42032 3.37456 3.94832C3.37456 5.59878 4.1401 7.27508 5.15364 8.31016C5.54872 9.34647 4.84225 9.73109 4.69456 9.78524C2.64902 10.5249 0.249023 11.8732 0.249023 13.2043V13.7034C0.249023 15.5169 3.76533 15.9292 7.01948 15.9292C10.2786 15.9292 13.7506 15.5169 13.7506 13.7034V13.2043C13.7506 11.8332 11.3389 10.4954 9.19241 9.78462Z" fill="black"/>
</svg>
