<svg width="30" height="31" viewBox="0 0 30 31" fill="none" xmlns="http://www.w3.org/2000/svg">
<path d="M15 0.452271C18.9782 0.452271 22.7936 2.03262 25.6066 4.84567C28.4196 7.65871 30 11.474 30 15.4523C30 19.4305 28.4196 23.2458 25.6066 26.0589C22.7936 28.8719 18.9782 30.4523 15 30.4523C11.0218 30.4523 7.20644 28.8719 4.3934 26.0589C1.58035 23.2458 0 19.4305 0 15.4523C0 11.474 1.58035 7.65871 4.3934 4.84567C7.20644 2.03262 11.0218 0.452271 15 0.452271V0.452271ZM8.4375 14.5148C8.18886 14.5148 7.9504 14.6135 7.77459 14.7894C7.59877 14.9652 7.5 15.2036 7.5 15.4523C7.5 15.7009 7.59877 15.9394 7.77459 16.1152C7.9504 16.291 8.18886 16.3898 8.4375 16.3898H19.2994L15.2738 20.4135C15.1866 20.5007 15.1174 20.6042 15.0703 20.7181C15.0231 20.8319 14.9988 20.954 14.9988 21.0773C14.9988 21.2005 15.0231 21.3226 15.0703 21.4365C15.1174 21.5504 15.1866 21.6539 15.2738 21.741C15.3609 21.8282 15.4644 21.8973 15.5783 21.9445C15.6922 21.9917 15.8142 22.016 15.9375 22.016C16.0608 22.016 16.1828 21.9917 16.2967 21.9445C16.4106 21.8973 16.5141 21.8282 16.6012 21.741L22.2262 16.116C22.3136 16.0289 22.3828 15.9255 22.4301 15.8116C22.4773 15.6977 22.5017 15.5756 22.5017 15.4523C22.5017 15.329 22.4773 15.2069 22.4301 15.093C22.3828 14.9791 22.3136 14.8756 22.2262 14.7885L16.6012 9.16352C16.5141 9.07635 16.4106 9.00721 16.2967 8.96004C16.1828 8.91287 16.0608 8.88859 15.9375 8.88859C15.8142 8.88859 15.6922 8.91287 15.5783 8.96004C15.4644 9.00721 15.3609 9.07635 15.2738 9.16352C15.1866 9.25069 15.1174 9.35417 15.0703 9.46805C15.0231 9.58194 14.9988 9.704 14.9988 9.82727C14.9988 9.95054 15.0231 10.0726 15.0703 10.1865C15.1174 10.3004 15.1866 10.4039 15.2738 10.491L19.2994 14.5148H8.4375Z" fill="white"/>
</svg>
