<svg width="252" height="254" viewBox="0 0 252 254" fill="none" xmlns="http://www.w3.org/2000/svg">
<path d="M85.9788 185.264C108.149 207.434 144.089 207.434 166.259 185.264C188.429 163.094 188.429 127.154 166.259 104.984L202.579 68.6636C244.799 110.894 244.799 179.354 202.579 221.574C160.359 263.804 91.8887 263.804 49.6687 221.574L85.9887 185.254L85.9788 185.264Z" fill="#3D99D3"/>
<path d="M85.9788 185.264C63.8088 163.094 63.8088 127.154 85.9788 104.984C108.149 82.8138 144.089 82.8138 166.259 104.984L202.579 68.6637C160.349 26.4437 91.8888 26.4438 49.6688 68.6737C7.44875 110.904 7.43875 179.364 49.6688 221.584L85.9887 185.264H85.9788Z" fill="#3CC7F4"/>
</svg>
