<svg width="252" height="253" viewBox="0 0 252 253" fill="none" xmlns="http://www.w3.org/2000/svg">
<path d="M157.46 112.93C170.059 122.355 178.212 137.398 178.212 154.335C178.212 182.882 155.064 206.029 126.495 206.029C97.927 206.029 74.779 182.891 74.779 154.335C74.779 137.388 82.9323 122.355 95.5311 112.93C81.1558 105.745 69.641 93.7162 63.1093 78.9736C41.6465 97.0307 28 124.094 28 154.335C28 208.716 72.1007 252.789 126.495 252.789C180.89 252.789 224.991 208.707 224.991 154.335C224.991 124.085 211.344 97.0307 189.873 78.9736C183.341 93.7162 171.826 105.745 157.451 112.93H157.46Z" fill="#3D99D3"/>
<path d="M131.458 185.61C148.339 182.871 159.801 166.972 157.061 150.099C154.321 133.226 138.416 121.768 121.536 124.507C104.656 127.246 93.1928 143.145 95.9328 160.018C98.6729 176.891 114.578 188.349 131.458 185.61Z" fill="#3CC7F4"/>
<path d="M130.752 100.085C140.716 97.7337 146.888 87.7533 144.536 77.7927C142.184 67.8322 132.199 61.6633 122.235 64.0142C112.27 66.3651 106.098 76.3455 108.45 86.3061C110.802 96.2666 120.787 102.435 130.752 100.085Z" fill="#3CC7F4"/>
<path d="M136.745 32.1345C139.09 26.4754 136.402 19.9874 130.74 17.6433C125.079 15.2992 118.588 17.9866 116.243 23.6458C113.898 29.305 116.586 35.7929 122.248 38.137C127.91 40.4811 134.4 37.7937 136.745 32.1345Z" fill="#3CC7F4"/>
</svg>
