<svg width="252" height="253" viewBox="0 0 252 253" fill="none" xmlns="http://www.w3.org/2000/svg">
<path d="M155.602 145C155.602 128.596 142.347 115.31 125.995 115.31C109.643 115.31 96.3984 128.606 96.3984 145C96.3984 161.394 109.653 174.699 125.995 174.699C142.337 174.699 155.602 161.404 155.602 145V145Z" fill="#3CC7F4"/>
<path d="M125.995 92.2096C148.455 92.2096 167.601 106.322 175.169 126.177H232C223.118 75.511 179.051 37 125.995 37C72.9387 37 28.8819 75.511 20 126.177H76.8307C84.3892 106.322 103.545 92.2096 125.995 92.2096V92.2096Z" fill="#3D99D3"/>
<path d="M125.995 197.79C103.545 197.79 84.3892 183.678 76.8307 163.823H20C28.8819 214.489 72.9485 253 125.995 253C179.042 253 223.118 214.489 231.99 163.823H175.16C167.601 183.678 148.445 197.79 125.985 197.79H125.995Z" fill="#3D99D3"/>
</svg>
