<svg width="83" height="83" viewBox="0 0 83 83" fill="none" xmlns="http://www.w3.org/2000/svg">
<path fill-rule="evenodd" clip-rule="evenodd" d="M16.6042 15.4293C15.8896 15.4293 15.4454 15.9924 15.6134 16.6911L17.0691 22.7501C17.2367 23.4472 17.5088 24.5781 17.6754 25.2732L27.5242 66.26C27.6915 66.9564 28.407 67.5212 29.1213 67.5212H55.5597C55.73 67.521 55.8985 67.4872 56.0557 67.4218C56.2129 67.3564 56.3556 67.2607 56.4758 67.1401C56.596 67.0195 56.6912 66.8764 56.756 66.719C56.8209 66.5616 56.8541 66.3929 56.8537 66.2227V58.0997C56.8534 57.7555 56.7166 57.4255 56.4733 57.1821C56.2299 56.9388 55.9 56.8019 55.5558 56.8015H37.7724C37.0556 56.8015 36.3267 56.24 36.1449 55.5461L25.9381 16.6843C25.7559 15.9911 25.0251 15.4293 24.3144 15.4293H16.6042Z" fill="black"/>
<path fill-rule="evenodd" clip-rule="evenodd" d="M30.4866 15.6883C29.772 15.6883 29.346 16.2486 29.5356 16.9424L38.724 50.5606C38.9137 51.2535 39.6451 51.815 40.3626 51.815H42.7268C43.4423 51.815 44.1485 51.2477 44.3032 50.5506L51.7647 16.9524C51.92 16.2541 51.4655 15.688 50.7499 15.688H49.1373C48.4217 15.688 47.7305 16.2573 47.5933 16.9589L43.0452 40.2284C42.908 40.9307 42.2132 41.4997 41.4987 41.4997H41.9175C41.2004 41.4997 40.4715 40.9365 40.29 40.2459L34.1668 16.9417C33.9852 16.2492 33.2586 15.688 32.5437 15.688H30.4862L30.4866 15.6883ZM47.604 51.8056C46.8868 51.8056 46.4394 51.2438 46.6067 50.5422L54.6441 16.8215C54.8104 16.1237 55.5257 15.558 56.2428 15.558H58.052C58.7688 15.558 59.2166 16.1199 59.0506 16.8215L51.0534 50.5422C50.888 51.2402 50.1722 51.8056 49.455 51.8056H47.604ZM56.959 52.2628C57.6756 52.2628 58.3956 51.6964 58.5652 51.0055L66.9158 16.9891C67.0863 16.2943 66.6454 15.7314 65.9253 15.7314H63.7229C63.0054 15.7314 62.2846 16.2979 62.1151 16.9891L53.7703 51.0051C53.6001 51.6996 54.0404 52.2625 54.7592 52.2625H56.959V52.2628Z" fill="black"/>
</svg>
