<svg width="252" height="253" viewBox="0 0 252 253" fill="none" xmlns="http://www.w3.org/2000/svg">
<path d="M176.314 147.063C178.534 162.499 173.705 178.756 161.835 190.635C141.822 210.648 109.379 210.648 89.3669 190.635C69.3543 170.623 69.3543 138.18 89.3669 118.168C101.246 106.288 117.495 101.468 132.94 103.689C127.912 88.5775 128.273 72.0764 134.023 57.1731C106.319 54.79 77.7854 64.1869 56.5904 85.3911C18.4699 123.503 18.4699 185.309 56.5904 223.421C94.7108 261.532 156.509 261.532 194.62 223.421C215.824 202.217 225.221 173.692 222.838 145.988C207.935 151.748 191.434 152.109 176.323 147.072L176.314 147.063Z" fill="#3D99D3"/>
<path d="M198.059 125.868C222.323 125.868 241.993 106.198 241.993 81.9338C241.993 57.6698 222.323 38 198.059 38C173.795 38 154.126 57.6698 154.126 81.9338C154.126 106.198 173.795 125.868 198.059 125.868Z" fill="#3CC7F4"/>
</svg>
