<svg width="83" height="83" viewBox="0 0 83 83" fill="none" xmlns="http://www.w3.org/2000/svg">
<path d="M58.3334 61.4978H38.7766C37.6092 61.5423 36.446 61.3335 35.3669 60.8858C34.2879 60.438 33.3186 59.762 32.5256 58.9041C29.8294 55.9531 27.6069 52.602 25.9375 48.97C22.5656 42.2263 19.3494 35.4307 16.0294 28.6869C15.0178 26.6119 13.9025 24.6406 12.7094 22.6694C11.0048 19.3103 8.40072 16.4907 5.1875 14.525H14.4472C20.5309 14.585 26.601 15.1139 32.6034 16.1072C36.2658 16.6607 39.7163 18.1736 42.6046 20.4925C45.4929 22.8113 47.7159 25.8533 49.0478 29.3094C51.4251 35.5141 53.3071 41.8974 54.6763 48.3994C55.4508 52.8776 56.6761 57.2661 58.3334 61.4978ZM72.8844 68.4231C71.0787 68.3144 69.3709 67.5651 68.0682 66.3099C66.7655 65.0548 65.9533 63.3761 65.7775 61.5756C65.4096 57.3498 65.2883 53.1062 65.4144 48.8663C65.4078 42.2812 64.8787 35.707 63.8322 29.2057C63.6403 27.3024 62.8915 25.498 61.6794 24.0182H68.5528C69.9534 24.0182 70.4463 24.9778 70.8613 26.0413C71.8314 28.7485 72.4249 31.5762 72.625 34.445C73.3772 41.5 73.4291 48.581 73.4809 55.6619C73.4286 56.6555 73.4286 57.6511 73.4809 58.6447C73.7144 60.6678 74.5184 61.4978 76.5156 61.446C77.8125 61.446 77.8125 61.2903 77.8125 61.2903V68.2675C76.1805 68.5009 74.5278 68.5531 72.8844 68.4231Z" fill="black"/>
</svg>
