<svg width="83" height="83" viewBox="0 0 83 83" fill="none" xmlns="http://www.w3.org/2000/svg">
<path fill-rule="evenodd" clip-rule="evenodd" d="M23.5772 39.5443L35.69 45.4503C36.2039 45.699 36.6285 46.1001 36.9061 46.599C37.1836 47.0978 37.3006 47.6701 37.2411 48.2379C37.1815 48.8057 36.9483 49.3412 36.5733 49.7716C36.1982 50.202 35.6996 50.5063 35.1453 50.643L22.0728 53.9033C21.6885 53.9985 21.2882 54.0105 20.8989 53.9386C20.5095 53.8667 20.1399 53.7125 19.8149 53.4864C19.4898 53.2603 19.2168 52.9675 19.014 52.6274C18.8111 52.2874 18.6832 51.9079 18.6387 51.5145C18.2348 48.0207 18.6068 44.4808 19.7281 41.1473C19.8545 40.7732 20.0593 40.4303 20.3288 40.1417C20.5984 39.8531 20.9264 39.6253 21.291 39.4736C21.6555 39.3219 22.0483 39.2497 22.443 39.2619C22.8377 39.2741 23.2253 39.3704 23.5798 39.5443H23.5772ZM28.4275 64.4806L37.4434 54.4688C37.8241 54.0441 38.3265 53.747 38.882 53.618C39.4376 53.489 40.0195 53.5343 40.5484 53.7477C41.0773 53.9612 41.5276 54.3324 41.8381 54.8109C42.1485 55.2893 42.304 55.8519 42.2833 56.4219L41.8139 69.8938C41.8002 70.2898 41.702 70.6783 41.5259 71.0333C41.3498 71.3883 41.0999 71.7016 40.7929 71.9521C40.4859 72.2026 40.1289 72.3846 39.7458 72.4859C39.3627 72.5872 38.9624 72.6055 38.5717 72.5394C35.1075 71.955 31.8127 70.621 28.9177 68.6306C28.5916 68.4066 28.3171 68.1155 28.1126 67.7768C27.9081 67.4382 27.7783 67.0597 27.7318 66.6668C27.6854 66.2739 27.7235 65.8756 27.8435 65.4985C27.9634 65.1215 28.1626 64.7745 28.4275 64.4806ZM49.8052 51.1539L62.6235 55.3195C62.9998 55.4416 63.3456 55.6426 63.6379 55.9092C63.9302 56.1757 64.1622 56.5016 64.3183 56.865C64.4745 57.2285 64.5513 57.621 64.5435 58.0165C64.5357 58.412 64.4435 58.8013 64.2731 59.1583C62.761 62.3293 60.5745 65.1319 57.8666 67.3701C57.5613 67.6224 57.2056 67.8066 56.8234 67.9104C56.4412 68.0141 56.0412 68.035 55.6502 67.9717C55.2593 67.9083 54.8863 67.7622 54.5564 67.543C54.2265 67.3238 53.9473 67.0367 53.7373 66.7009L46.5941 55.2676C46.2906 54.7844 46.1435 54.2194 46.1727 53.6495C46.2019 53.0797 46.406 52.5326 46.7573 52.083C47.1086 51.6333 47.5899 51.3028 48.1358 51.1366C48.6817 50.9704 49.2655 50.9764 49.8078 51.1539H49.8052ZM62.8388 42.9785L49.883 46.6927C49.3351 46.8503 48.7519 46.8354 48.2128 46.65C47.6737 46.4645 47.2048 46.1175 46.8698 45.6561C46.5348 45.1948 46.3501 44.6415 46.3407 44.0714C46.3313 43.5014 46.4976 42.9422 46.8172 42.4701L54.3546 31.2962C54.575 30.969 54.8625 30.6925 55.1982 30.4852C55.5338 30.2778 55.9098 30.1444 56.301 30.0939C56.6922 30.0433 57.0898 30.0767 57.4671 30.1919C57.8444 30.3071 58.1928 30.5014 58.4891 30.7619C61.1272 33.0868 63.2199 35.9651 64.6181 39.1916C64.7765 39.5546 64.8555 39.9472 64.85 40.3432C64.8445 40.7393 64.7545 41.1295 64.5861 41.488C64.4177 41.8464 64.1747 42.1648 63.8734 42.4219C63.572 42.6789 63.2193 42.8686 62.8388 42.9785ZM32.5697 11.5422C30.2791 12.1548 28.0496 12.9761 25.909 13.9959C25.5638 14.1612 25.2566 14.396 25.0065 14.6857C24.7565 14.9755 24.5691 15.3138 24.4561 15.6794C24.343 16.045 24.3068 16.43 24.3498 16.8103C24.3927 17.1906 24.5138 17.5579 24.7055 17.8891L37.3682 39.8219C37.6728 40.3527 38.1445 40.7679 38.7096 41.0029C39.2748 41.2379 39.9018 41.2795 40.493 41.1212C41.0843 40.9629 41.6066 40.6135 41.9787 40.1276C42.3508 39.6416 42.5518 39.0463 42.5505 38.4342V13.1062C42.5509 12.7236 42.4722 12.345 42.3193 11.9943C42.1664 11.6435 41.9426 11.3282 41.662 11.068C41.3814 10.8079 41.05 10.6086 40.6887 10.4826C40.3274 10.3567 39.944 10.3068 39.5625 10.3361C37.1987 10.5235 34.8572 10.9272 32.5671 11.5422H32.5697Z" fill="black"/>
</svg>
