<svg width="83" height="83" viewBox="0 0 83 83" fill="none" xmlns="http://www.w3.org/2000/svg">
<path d="M23.4527 49.7118C23.4527 51.0052 23.0692 52.2695 22.3505 53.3449C21.6319 54.4203 20.6106 55.2584 19.4156 55.7532C18.2206 56.248 16.9057 56.3774 15.6373 56.1249C14.3688 55.8723 13.2037 55.2493 12.2893 54.3346C11.3749 53.4199 10.7524 52.2545 10.5004 50.9859C10.2483 49.7173 10.3782 48.4025 10.8735 47.2077C11.3688 46.013 12.2073 44.9919 13.283 44.2737C14.3586 43.5555 15.6231 43.1725 16.9165 43.173H23.4527V49.7118ZM26.7468 49.7118C26.7468 47.9773 27.4358 46.3138 28.6623 45.0873C29.8889 43.8608 31.5524 43.1717 33.2869 43.1717C35.0215 43.1717 36.685 43.8608 37.9115 45.0873C39.138 46.3138 39.8271 47.9773 39.8271 49.7118V66.0862C39.8271 67.8204 39.1382 69.4836 37.9119 70.7099C36.6856 71.9361 35.0224 72.625 33.2882 72.625C31.554 72.625 29.8908 71.9361 28.6646 70.7099C27.4383 69.4836 26.7494 67.8204 26.7494 66.0862L26.7468 49.7118ZM33.2882 23.4527C31.9948 23.4527 30.7305 23.0692 29.6552 22.3505C28.5798 21.6319 27.7417 20.6106 27.2469 19.4156C26.752 18.2206 26.6227 16.9057 26.8752 15.6373C27.1277 14.3688 27.7507 13.2037 28.6655 12.2893C29.5802 11.3749 30.7456 10.7524 32.0141 10.5004C33.2827 10.2483 34.5976 10.3782 35.7923 10.8735C36.9871 11.3688 38.0081 12.2073 38.7263 13.283C39.4445 14.3586 39.8276 15.6231 39.8271 16.9165V23.4527H33.2882ZM33.2882 26.7468C35.0228 26.7468 36.6863 27.4358 37.9128 28.6623C39.1393 29.8889 39.8284 31.5524 39.8284 33.2869C39.8284 35.0215 39.1393 36.685 37.9128 37.9115C36.6863 39.138 35.0228 39.8271 33.2882 39.8271H16.9113C15.1771 39.8271 13.5139 39.1382 12.2876 37.9119C11.0613 36.6856 10.3724 35.0224 10.3724 33.2882C10.3724 31.554 11.0613 29.8908 12.2876 28.6646C13.5139 27.4383 15.1771 26.7494 16.9113 26.7494L33.2882 26.7468ZM59.5473 33.2882C59.5473 31.9948 59.9309 30.7305 60.6495 29.6552C61.3681 28.5798 62.3895 27.7417 63.5845 27.2469C64.7794 26.752 66.0943 26.6227 67.3628 26.8752C68.6313 27.1277 69.7964 27.7507 70.7108 28.6655C71.6251 29.5802 72.2477 30.7456 72.4997 32.0141C72.7517 33.2827 72.6219 34.5976 72.1266 35.7923C71.6312 36.9871 70.7927 38.0081 69.7171 38.7263C68.6414 39.4445 67.377 39.8276 66.0836 39.8271H59.5473V33.2882ZM56.2533 33.2882C56.2533 35.0228 55.5642 36.6863 54.3377 37.9128C53.1112 39.1393 51.4477 39.8284 49.7131 39.8284C47.9786 39.8284 46.3151 39.1393 45.0886 37.9128C43.862 36.6863 43.173 35.0228 43.173 33.2882V16.9113C43.173 15.1771 43.8619 13.5139 45.0882 12.2876C46.3145 11.0613 47.9776 10.3724 49.7118 10.3724C51.4461 10.3724 53.1092 11.0613 54.3355 12.2876C55.5618 13.5139 56.2507 15.1771 56.2507 16.9113L56.2533 33.2882ZM49.7118 59.5473C51.0052 59.5473 52.2695 59.9309 53.3449 60.6495C54.4203 61.3681 55.2584 62.3895 55.7532 63.5845C56.248 64.7794 56.3774 66.0943 56.1249 67.3628C55.8723 68.6313 55.2493 69.7964 54.3346 70.7108C53.4199 71.6251 52.2545 72.2477 50.9859 72.4997C49.7173 72.7517 48.4025 72.6219 47.2077 72.1266C46.013 71.6312 44.9919 70.7927 44.2737 69.7171C43.5555 68.6414 43.1725 67.377 43.173 66.0836V59.5473H49.7118ZM49.7118 56.2533C47.9773 56.2533 46.3138 55.5642 45.0873 54.3377C43.8608 53.1112 43.1717 51.4477 43.1717 49.7131C43.1717 47.9786 43.8608 46.3151 45.0873 45.0886C46.3138 43.862 47.9773 43.173 49.7118 43.173H66.0862C67.8204 43.173 69.4836 43.8619 70.7099 45.0882C71.9361 46.3145 72.625 47.9776 72.625 49.7118C72.625 51.4461 71.9361 53.1092 70.7099 54.3355C69.4836 55.5618 67.8204 56.2507 66.0862 56.2507L49.7118 56.2533Z" fill="black"/>
</svg>
