<svg width="73" height="55" viewBox="0 0 73 55" fill="none" xmlns="http://www.w3.org/2000/svg">
  <path
    d="M53.3334 47.4978H33.7766C32.6092 47.5423 31.446 47.3335 30.3669 46.8858C29.2879 46.438 28.3186 45.762 27.5256 44.9041C24.8294 41.9531 22.6069 38.602 20.9375 34.97C17.5656 28.2263 14.3494 21.4307 11.0294 14.6869C10.0178 12.6119 8.9025 10.6406 7.70938 8.6694C6.0048 5.31034 3.40072 2.49075 0.1875 0.525024H9.44719C15.5309 0.584966 21.601 1.11393 27.6034 2.10721C31.2658 2.66066 34.7163 4.17364 37.6046 6.49245C40.4929 8.81126 42.7159 11.8533 44.0478 15.3094C46.4251 21.5141 48.3071 27.8974 49.6763 34.3994C50.4508 38.8776 51.6761 43.2661 53.3334 47.4978ZM67.8844 54.4231C66.0787 54.3144 64.3709 53.5651 63.0682 52.3099C61.7655 51.0548 60.9533 49.3761 60.7775 47.5756C60.4096 43.3498 60.2883 39.1062 60.4144 34.8663C60.4078 28.2812 59.8787 21.707 58.8322 15.2057C58.6403 13.3024 57.8915 11.498 56.6794 10.0182H63.5528C64.9534 10.0182 65.4463 10.9778 65.8613 12.0413C66.8314 14.7485 67.4249 17.5762 67.625 20.445C68.3772 27.5 68.4291 34.581 68.4809 41.6619C68.4286 42.6555 68.4286 43.6511 68.4809 44.6447C68.7144 46.6678 69.5184 47.4978 71.5156 47.446C72.8125 47.446 72.8125 47.2903 72.8125 47.2903V54.2675C71.1805 54.5009 69.5278 54.5531 67.8844 54.4231Z"
    fill="black"
  />
</svg>