<svg width="52" height="54" viewBox="0 0 52 54" fill="none" xmlns="http://www.w3.org/2000/svg">
<path
  fill-rule="evenodd"
  clip-rule="evenodd"
  d="M0.555542 18.7493C0.555542 27.0105 13.5647 53.4088 25.9081 53.4088H25.9084C38.2522 53.4088 51.3043 28.178 51.3043 17.7971C51.3043 11.2336 45.1992 0.612183 25.8353 0.612183C6.47164 0.612183 0.555542 12.3453 0.555542 18.7493ZM16.9746 20.5979C12.3507 15.6065 9.48087 10.5468 9.48087 10.5468C9.48087 10.5468 14.2092 8.19253 17.2981 7.56384C17.5613 7.51035 17.8297 7.45293 18.1047 7.39453C21.0568 6.76584 24.7292 5.98425 30.0248 7.8854C41.0429 11.8413 45.7407 19.2405 45.7407 19.2405C45.7407 19.2405 38.6502 13.5308 30.8425 12.3843C26.3449 11.7238 17.979 14.4029 17.979 14.4029C17.979 14.4029 20.8868 17.4808 23.2536 21.9872C23.6267 22.6976 23.9902 23.348 24.3384 23.9707C26.1982 27.2969 27.6111 29.8238 27.6111 36.4165C27.6111 41.2265 23.9755 48.3744 23.9755 48.3744C23.9755 48.3744 26.0174 39.0612 24.3705 31.6974C23.1804 26.3743 22.2623 25.5553 20.0983 23.6246C19.2688 22.8846 18.2559 21.9813 16.9746 20.5979Z"
  fill="black"
/>
</svg>