<svg width="735" height="673" viewBox="0 0 735 673" fill="none" xmlns="http://www.w3.org/2000/svg">
<g clip-path="url(#clip0_17_40)">
<path d="M687.186 672.109H47.8138C11.0495 672.109 -11.9071 632.385 6.47502 600.601L80.2391 473.066C98.8735 440.846 134.612 422.327 171.713 425.819C338.228 441.484 441.659 408.744 561.774 380.402C582.326 375.55 603.634 384.7 614.196 402.951L728.525 600.618C746.907 632.401 723.951 672.126 687.186 672.126V672.109Z" fill="#3D91CE"/>
</g>
<path d="M499.575 302.329C432.183 329.477 312.991 369.821 181.232 379.116C151.948 381.192 132.303 349.523 146.984 324.082L318.111 27.5506C339.308 -9.18354 392.252 -9.18354 413.449 27.5506L445.623 83.3796L526.59 223.718C543.327 252.71 530.605 289.832 499.556 302.349L499.575 302.329Z" fill="#3CC7F4"/>
<defs>
<clipPath id="clip0_17_40">
<rect width="735" height="293" fill="white" transform="translate(0 379.109)"/>
</clipPath>
</defs>
</svg>
