<svg width="47" height="63" viewBox="0 0 47 63" fill="none" xmlns="http://www.w3.org/2000/svg">
  <path
    fill-rule="evenodd"
    clip-rule="evenodd"
    d="M5.57719 29.5443L17.69 35.4503C18.2039 35.699 18.6285 36.1001 18.9061 36.599C19.1836 37.0978 19.3006 37.6701 19.2411 38.2379C19.1815 38.8057 18.9483 39.3412 18.5733 39.7716C18.1982 40.202 17.6996 40.5063 17.1453 40.643L4.07282 43.9033C3.68846 43.9985 3.28823 44.0105 2.89886 43.9386C2.50948 43.8667 2.13993 43.7125 1.81489 43.4864C1.48984 43.2603 1.21678 42.9675 1.01395 42.6274C0.81112 42.2874 0.683186 41.9079 0.638693 41.5145C0.2348 38.0207 0.606767 34.4808 1.72807 31.1473C1.85451 30.7732 2.05933 30.4303 2.32884 30.1417C2.59836 29.8531 2.92637 29.6253 3.29095 29.4736C3.65553 29.3219 4.0483 29.2497 4.44301 29.2619C4.83771 29.2741 5.22527 29.3704 5.57979 29.5443H5.57719ZM10.4275 54.4806L19.4434 44.4688C19.8241 44.0441 20.3265 43.747 20.882 43.618C21.4376 43.489 22.0195 43.5343 22.5484 43.7477C23.0773 43.9612 23.5276 44.3324 23.8381 44.8109C24.1485 45.2893 24.304 45.8519 24.2833 46.4219L23.8139 59.8938C23.8002 60.2898 23.702 60.6783 23.5259 61.0333C23.3498 61.3883 23.0999 61.7016 22.7929 61.9521C22.4859 62.2026 22.1289 62.3846 21.7458 62.4859C21.3627 62.5872 20.9624 62.6055 20.5717 62.5394C17.1075 61.955 13.8127 60.621 10.9177 58.6306C10.5916 58.4066 10.3171 58.1155 10.1126 57.7768C9.90806 57.4382 9.77825 57.0597 9.73184 56.6668C9.68543 56.2739 9.72348 55.8756 9.84346 55.4985C9.96343 55.1215 10.1626 54.7745 10.4275 54.4806ZM31.8052 41.1539L44.6235 45.3195C44.9998 45.4416 45.3456 45.6426 45.6379 45.9092C45.9302 46.1757 46.1622 46.5016 46.3183 46.865C46.4745 47.2285 46.5513 47.621 46.5435 48.0165C46.5357 48.412 46.4435 48.8013 46.2731 49.1583C44.761 52.3293 42.5745 55.1319 39.8666 57.3701C39.5613 57.6224 39.2056 57.8066 38.8234 57.9104C38.4412 58.0141 38.0412 58.035 37.6502 57.9717C37.2593 57.9083 36.8863 57.7622 36.5564 57.543C36.2265 57.3238 35.9473 57.0367 35.7373 56.7009L28.5941 45.2676C28.2906 44.7844 28.1435 44.2194 28.1727 43.6495C28.2019 43.0797 28.406 42.5326 28.7573 42.083C29.1086 41.6333 29.5899 41.3028 30.1358 41.1366C30.6817 40.9704 31.2655 40.9764 31.8078 41.1539H31.8052ZM44.8388 32.9785L31.883 36.6927C31.3351 36.8503 30.7519 36.8354 30.2128 36.65C29.6737 36.4645 29.2048 36.1175 28.8698 35.6561C28.5348 35.1948 28.3501 34.6415 28.3407 34.0714C28.3313 33.5014 28.4976 32.9422 28.8172 32.4701L36.3546 21.2962C36.575 20.969 36.8625 20.6925 37.1982 20.4852C37.5338 20.2778 37.9098 20.1444 38.301 20.0939C38.6922 20.0433 39.0898 20.0767 39.4671 20.1919C39.8444 20.3071 40.1928 20.5014 40.4891 20.7619C43.1272 23.0868 45.2199 25.9651 46.6181 29.1916C46.7765 29.5546 46.8555 29.9472 46.85 30.3432C46.8445 30.7393 46.7545 31.1295 46.5861 31.488C46.4177 31.8464 46.1747 32.1648 45.8734 32.4219C45.572 32.6789 45.2193 32.8686 44.8388 32.9785ZM14.5697 1.5422C12.2791 2.15479 10.0496 2.97612 7.90898 3.99589C7.56382 4.16116 7.25657 4.39603 7.00653 4.68575C6.7565 4.97546 6.56908 5.31376 6.45605 5.67938C6.34303 6.045 6.30685 6.43004 6.34977 6.81031C6.39269 7.19059 6.5138 7.55788 6.70547 7.8891L19.3682 29.8219C19.6728 30.3527 20.1445 30.7679 20.7096 31.0029C21.2748 31.2379 21.9018 31.2795 22.493 31.1212C23.0843 30.9629 23.6066 30.6135 23.9787 30.1276C24.3508 29.6416 24.5518 29.0463 24.5505 28.4342V3.10623C24.5509 2.7236 24.4722 2.34502 24.3193 1.99426C24.1664 1.6435 23.9426 1.32815 23.662 1.06801C23.3814 0.807877 23.05 0.608571 22.6887 0.482617C22.3274 0.356662 21.944 0.306781 21.5625 0.336104C19.1987 0.523525 16.8572 0.927245 14.5671 1.5422H14.5697Z"
    fill="black"
  />
</svg>