<svg width="52" height="53" viewBox="0 0 52 53" fill="none" xmlns="http://www.w3.org/2000/svg">
    <path
      fill-rule="evenodd"
      clip-rule="evenodd"
      d="M1.60419 0.42926C0.889611 0.42926 0.445431 0.992428 0.613377 1.69112L2.06912 7.75012C2.23674 8.44719 2.50876 9.57806 2.67541 10.2732L12.5242 51.26C12.6915 51.9564 13.407 52.5212 14.1213 52.5212H40.5597C40.73 52.521 40.8985 52.4872 41.0557 52.4218C41.2129 52.3564 41.3556 52.2607 41.4758 52.1401C41.596 52.0195 41.6912 51.8764 41.756 51.719C41.8209 51.5616 41.8541 51.3929 41.8537 51.2227V43.0997C41.8534 42.7555 41.7166 42.4255 41.4733 42.1821C41.23 41.9388 40.9 41.8019 40.5558 41.8015H22.7724C22.0556 41.8015 21.3267 41.24 21.1449 40.5461L10.9381 1.68431C10.7559 0.991131 10.0251 0.42926 9.31444 0.42926H1.60419Z"
      fill="black"
    />
    <path
      fill-rule="evenodd"
      clip-rule="evenodd"
      d="M15.4866 0.688319C14.772 0.688319 14.346 1.24857 14.5356 1.9424L23.724 35.5606C23.9137 36.2535 24.6451 36.815 25.3626 36.815H27.7268C28.4423 36.815 29.1485 36.2477 29.3032 35.5506L36.7647 1.95245C36.92 1.25408 36.4655 0.687995 35.7499 0.687995H34.1373C33.4217 0.687995 32.7305 1.25732 32.5933 1.95893L28.0452 25.2284C27.908 25.9307 27.2132 26.4997 26.4987 26.4997H26.9175C26.2004 26.4997 25.4715 25.9365 25.29 25.2459L19.1668 1.94175C18.9852 1.24922 18.2586 0.687995 17.5437 0.687995H15.4862L15.4866 0.688319ZM32.604 36.8056C31.8868 36.8056 31.4394 36.2438 31.6067 35.5422L39.6441 1.82146C39.8104 1.12374 40.5257 0.557983 41.2428 0.557983H43.052C43.7688 0.557983 44.2166 1.11985 44.0506 1.82146L36.0534 35.5422C35.888 36.2402 35.1722 36.8056 34.455 36.8056H32.604ZM41.959 37.2628C42.6756 37.2628 43.3956 36.6964 43.5652 36.0055L51.9158 1.98909C52.0863 1.29428 51.6454 0.73144 50.9253 0.73144H48.7229C48.0054 0.73144 47.2846 1.29785 47.1151 1.98909L38.7703 36.0051C38.6001 36.6996 39.0404 37.2625 39.7592 37.2625H41.959V37.2628Z"
      fill="black"
    />
  </svg>