<svg width="63" height="63" viewBox="0 0 63 63" fill="none" xmlns="http://www.w3.org/2000/svg">
  <path
    d="M13.4527 39.7118C13.4527 41.0052 13.0692 42.2695 12.3505 43.3449C11.6319 44.4203 10.6106 45.2584 9.41558 45.7532C8.22061 46.248 6.90574 46.3774 5.63726 46.1249C4.36877 45.8723 3.20367 45.2493 2.2893 44.3346C1.37493 43.4199 0.752366 42.2545 0.500356 40.9859C0.248346 39.7173 0.378207 38.4025 0.873515 37.2077C1.36882 36.013 2.20733 34.9919 3.28297 34.2737C4.35862 33.5555 5.6231 33.1725 6.91647 33.173H13.4527V39.7118ZM16.7468 39.7118C16.7468 37.9773 17.4358 36.3138 18.6623 35.0873C19.8889 33.8608 21.5524 33.1717 23.2869 33.1717C25.0215 33.1717 26.685 33.8608 27.9115 35.0873C29.138 36.3138 29.8271 37.9773 29.8271 39.7118V56.0862C29.8271 57.8204 29.1382 59.4836 27.9119 60.7099C26.6856 61.9361 25.0224 62.625 23.2882 62.625C21.554 62.625 19.8908 61.9361 18.6646 60.7099C17.4383 59.4836 16.7494 57.8204 16.7494 56.0862L16.7468 39.7118ZM23.2882 13.4527C21.9948 13.4527 20.7305 13.0692 19.6552 12.3505C18.5798 11.6319 17.7417 10.6106 17.2469 9.41558C16.752 8.22061 16.6227 6.90574 16.8752 5.63726C17.1277 4.36877 17.7507 3.20367 18.6655 2.2893C19.5802 1.37493 20.7456 0.752366 22.0141 0.500356C23.2827 0.248346 24.5976 0.378207 25.7923 0.873515C26.9871 1.36882 28.0081 2.20733 28.7263 3.28297C29.4445 4.35862 29.8276 5.6231 29.8271 6.91647V13.4527H23.2882ZM23.2882 16.7468C25.0228 16.7468 26.6863 17.4358 27.9128 18.6623C29.1393 19.8889 29.8284 21.5524 29.8284 23.2869C29.8284 25.0215 29.1393 26.685 27.9128 27.9115C26.6863 29.138 25.0228 29.8271 23.2882 29.8271H6.91128C5.17707 29.8271 3.51389 29.1382 2.28762 27.9119C1.06135 26.6856 0.372437 25.0224 0.372437 23.2882C0.372437 21.554 1.06135 19.8908 2.28762 18.6646C3.51389 17.4383 5.17707 16.7494 6.91128 16.7494L23.2882 16.7468ZM49.5473 23.2882C49.5473 21.9948 49.9309 20.7305 50.6495 19.6552C51.3681 18.5798 52.3895 17.7417 53.5845 17.2469C54.7794 16.752 56.0943 16.6227 57.3628 16.8752C58.6313 17.1277 59.7964 17.7507 60.7108 18.6655C61.6251 19.5802 62.2477 20.7456 62.4997 22.0141C62.7517 23.2827 62.6219 24.5976 62.1266 25.7923C61.6312 26.9871 60.7927 28.0081 59.7171 28.7263C58.6414 29.4445 57.377 29.8276 56.0836 29.8271H49.5473V23.2882ZM46.2533 23.2882C46.2533 25.0228 45.5642 26.6863 44.3377 27.9128C43.1112 29.1393 41.4477 29.8284 39.7131 29.8284C37.9786 29.8284 36.3151 29.1393 35.0886 27.9128C33.862 26.6863 33.173 25.0228 33.173 23.2882V6.91128C33.173 5.17707 33.8619 3.51389 35.0882 2.28762C36.3145 1.06135 37.9776 0.372437 39.7118 0.372437C41.4461 0.372437 43.1092 1.06135 44.3355 2.28762C45.5618 3.51389 46.2507 5.17707 46.2507 6.91128L46.2533 23.2882ZM39.7118 49.5473C41.0052 49.5473 42.2695 49.9309 43.3449 50.6495C44.4203 51.3681 45.2584 52.3895 45.7532 53.5845C46.248 54.7794 46.3774 56.0943 46.1249 57.3628C45.8723 58.6313 45.2493 59.7964 44.3346 60.7108C43.4199 61.6251 42.2545 62.2477 40.9859 62.4997C39.7173 62.7517 38.4025 62.6219 37.2077 62.1266C36.013 61.6312 34.9919 60.7927 34.2737 59.7171C33.5555 58.6414 33.1725 57.377 33.173 56.0836V49.5473H39.7118ZM39.7118 46.2533C37.9773 46.2533 36.3138 45.5642 35.0873 44.3377C33.8608 43.1112 33.1717 41.4477 33.1717 39.7131C33.1717 37.9786 33.8608 36.3151 35.0873 35.0886C36.3138 33.862 37.9773 33.173 39.7118 33.173H56.0862C57.8204 33.173 59.4836 33.8619 60.7099 35.0882C61.9361 36.3145 62.625 37.9776 62.625 39.7118C62.625 41.4461 61.9361 43.1092 60.7099 44.3355C59.4836 45.5618 57.8204 46.2507 56.0862 46.2507L39.7118 46.2533Z"
    fill="black"
  />
</svg>