<svg width="735" height="673" viewBox="0 0 735 673" fill="none" xmlns="http://www.w3.org/2000/svg">
<g clip-path="url(#clip0_17_40)">
<path d="M687.186 673H47.8138C11.0495 673 -11.9071 633.275 6.47502 601.492L80.2391 473.956C98.8735 441.736 134.612 423.217 171.713 426.71C338.228 442.375 441.659 409.634 561.774 381.293C582.326 376.441 603.634 385.591 614.196 403.842L728.525 601.509C746.907 633.292 723.951 673.017 687.186 673.017V673Z" fill="#3D91CE"/>
</g>
<path d="M499.575 303.22C432.183 330.368 312.991 370.711 181.232 380.006C151.948 382.083 132.303 350.413 146.984 324.973L318.111 28.4413C339.308 -8.29287 392.252 -8.29287 413.449 28.4413L445.623 84.2702L526.59 224.609C543.327 253.601 530.605 290.723 499.556 303.239L499.575 303.22Z" fill="#3CC7F4"/>
<defs>
<clipPath id="clip0_17_40">
<rect width="735" height="293" fill="white" transform="translate(0 380)"/>
</clipPath>
</defs>
</svg>
