<svg width="69" height="63" viewBox="0 0 69 63" fill="none" xmlns="http://www.w3.org/2000/svg">
  <path
    d="M61.6332 30.9735C61.3168 27.0838 60.2798 23.2868 58.5752 19.7763L68.2187 16.2747C67.4583 14.6997 66.5663 13.1917 65.5523 11.7668L61.0314 13.4138C57.0823 7.87687 51.4267 3.78743 44.9312 1.77203C38.4357 -0.243376 31.4586 -0.073577 25.0688 2.25541C18.679 4.58439 13.229 8.9441 9.5539 14.6666C5.87875 20.389 4.18112 27.1586 4.72113 33.9381L9.25241 32.2729C9.39619 34.0099 9.68335 35.7319 10.1109 37.4215L0.480347 40.9361C1.43344 44.7185 3.08074 48.291 5.33844 51.4719L10.4378 49.6147L10.4429 49.6251C13.5379 53.9813 17.712 57.4582 22.5558 59.7148C30.0378 63.1925 38.5938 63.5607 46.3469 60.7386C54.1001 57.9164 60.4174 52.1343 63.9131 44.6607C66.1819 39.8117 67.1474 34.4549 66.7143 29.1189L61.6332 30.9735ZM54.0594 40.0412C51.7927 44.8968 47.6923 48.6548 42.6579 50.4905C37.6235 52.3261 32.0665 52.0896 27.2063 49.8326C25.0054 48.8068 23.0095 47.3891 21.3159 45.6489L16.1673 47.5268C13.4021 44.6764 11.532 41.0787 10.7879 37.1777L20.4496 33.658C20.1062 31.8938 19.999 30.0918 20.1306 28.2993L15.5863 29.9515C15.8271 26.6913 16.857 23.5385 18.5873 20.7648C20.3176 17.9911 22.6965 15.6799 25.5188 14.0301C28.3412 12.3804 31.5224 11.4418 34.7882 11.2951C38.054 11.1484 41.3066 11.7981 44.2654 13.1881H44.281C46.4761 14.2184 48.4665 15.6376 50.1558 17.377L54.6793 15.7326C55.9273 17.017 56.9993 18.4613 57.8671 20.0278L48.2443 23.5553C50.1841 27.0196 51.0652 30.9767 50.7783 34.9367L55.8828 33.0796C55.7032 35.4917 55.0853 37.8508 54.0594 40.0412Z"
    fill="black"
  />
</svg>